<mxfile host="" modified="2020-07-02T12:17:11.650Z" agent="5.0 (Macintosh; Intel Mac OS X 10_15_4) AppleWebKit/537.36 (KHTML, like Gecko) Code/1.46.1 Chrome/78.0.3904.130 Electron/7.3.1 Safari/537.36" etag="nuVGH2L-nubGVNLyQ_t7" version="13.1.3">
    <diagram id="6hGFLwfOUW9BJ-s0fimq" name="Page-1">
        <mxGraphModel dx="690" dy="371" grid="1" gridSize="10" guides="1" tooltips="1" connect="1" arrows="1" fold="1" page="1" pageScale="1" pageWidth="827" pageHeight="1169" math="0" shadow="0">
            <root>
                <mxCell id="0"/>
                <mxCell id="1" parent="0"/>
                <mxCell id="4" value="ユーザー" style="text;align=center;verticalAlign=middle;spacingLeft=4;spacingRight=4;rotatable=0;points=[[0,0.5],[1,0.5]];portConstraint=eastwest;fontSize=14;" parent="1" vertex="1">
                    <mxGeometry x="20" y="39" width="80" height="26" as="geometry"/>
                </mxCell>
                <mxCell id="9" value="チャットルーム&#10;" style="text;align=center;verticalAlign=middle;spacingLeft=4;spacingRight=4;rotatable=0;points=[[0,0.5],[1,0.5]];portConstraint=eastwest;fontSize=14;" parent="1" vertex="1">
                    <mxGeometry x="640" y="39" width="80" height="26" as="geometry"/>
                </mxCell>
                <mxCell id="19" value="投稿" style="text;align=center;verticalAlign=middle;spacingLeft=4;spacingRight=4;rotatable=0;points=[[0,0.5],[1,0.5]];portConstraint=eastwest;fontSize=14;" parent="1" vertex="1">
                    <mxGeometry x="590" y="454" width="80" height="26" as="geometry"/>
                </mxCell>
                <mxCell id="20" value="タスク" style="text;align=center;verticalAlign=middle;spacingLeft=4;spacingRight=4;rotatable=0;points=[[0,0.5],[1,0.5]];portConstraint=eastwest;fontSize=14;" parent="1" vertex="1">
                    <mxGeometry x="300" y="450" width="80" height="26" as="geometry"/>
                </mxCell>
                <mxCell id="26" value="参加者" style="text;align=center;verticalAlign=middle;spacingLeft=4;spacingRight=4;rotatable=0;points=[[0,0.5],[1,0.5]];portConstraint=eastwest;fontSize=14;" parent="1" vertex="1">
                    <mxGeometry x="320" y="39" width="80" height="26" as="geometry"/>
                </mxCell>
                <mxCell id="27" value="" style="fontSize=12;html=1;endArrow=ERoneToMany;startArrow=ERmandOne;exitX=0;exitY=0.146;exitDx=0;exitDy=0;exitPerimeter=0;" parent="1" source="6" edge="1">
                    <mxGeometry width="100" height="100" relative="1" as="geometry">
                        <mxPoint x="600" y="140" as="sourcePoint"/>
                        <mxPoint x="493" y="140" as="targetPoint"/>
                    </mxGeometry>
                </mxCell>
                <mxCell id="29" value="" style="fontSize=12;html=1;endArrow=ERzeroToMany;startArrow=ERmandOne;entryX=0.013;entryY=0.357;entryDx=0;entryDy=0;entryPerimeter=0;exitX=1.011;exitY=0.123;exitDx=0;exitDy=0;exitPerimeter=0;" parent="1" source="3" target="34" edge="1">
                    <mxGeometry width="100" height="100" relative="1" as="geometry">
                        <mxPoint x="240" y="140" as="sourcePoint"/>
                        <mxPoint x="280" y="135" as="targetPoint"/>
                    </mxGeometry>
                </mxCell>
                <mxCell id="2" value="ユーザーid" style="swimlane;childLayout=stackLayout;horizontal=1;startSize=45;horizontalStack=0;rounded=1;fontSize=14;fontStyle=0;strokeWidth=2;resizeParent=0;resizeLast=1;shadow=0;dashed=0;align=center;arcSize=0;" parent="1" vertex="1">
                    <mxGeometry x="30" y="65" width="190" height="305" as="geometry"/>
                </mxCell>
                <mxCell id="3" value="メールアドレス&#10;&#10;パスワード&#10;&#10;表示名&#10;&#10;自己紹介&#10;&#10;勤務先電話番号&#10;&#10;携帯電話番号&#10;&#10;論理削除フラグ&#10;&#10;作成日時&#10;&#10;更新日時&#10;" style="align=left;strokeColor=none;fillColor=none;spacingLeft=4;fontSize=12;verticalAlign=top;resizable=0;rotatable=0;part=1;" parent="2" vertex="1">
                    <mxGeometry y="45" width="190" height="260" as="geometry"/>
                </mxCell>
                <mxCell id="14" value="タスクid" style="swimlane;childLayout=stackLayout;horizontal=1;startSize=50;horizontalStack=0;rounded=1;fontSize=14;fontStyle=0;strokeWidth=2;resizeParent=0;resizeLast=1;shadow=0;dashed=0;align=center;arcSize=0;" parent="1" vertex="1">
                    <mxGeometry x="300" y="480" width="230" height="332.5" as="geometry"/>
                </mxCell>
                <mxCell id="15" value="チャットルームid(FK)&#10;&#10;タスク内容&#10;&#10;タスク担当者&#10;&#10;期限&#10;&#10;完了判断フラグ&#10;&#10;論理削除フラグ&#10;&#10;作成者id&#10;&#10;更新者id&#10;&#10;作成日時&#10;&#10;更新日時" style="align=left;strokeColor=none;fillColor=none;spacingLeft=4;fontSize=12;verticalAlign=top;resizable=0;rotatable=0;part=1;" parent="14" vertex="1">
                    <mxGeometry y="50" width="230" height="282.5" as="geometry"/>
                </mxCell>
                <mxCell id="10" value="投稿id" style="swimlane;childLayout=stackLayout;horizontal=1;startSize=50;horizontalStack=0;rounded=1;fontSize=14;fontStyle=0;strokeWidth=2;resizeParent=0;resizeLast=1;shadow=0;dashed=0;align=center;arcSize=0;" parent="1" vertex="1">
                    <mxGeometry x="600" y="480" width="220" height="280" as="geometry"/>
                </mxCell>
                <mxCell id="11" value="チャットルームid(FK)&#10;&#10;投稿内容&#10;&#10;添付ファイル名&#10;&#10;論理削除フラグ&#10;&#10;作成者id&#10;&#10;更新者id&#10;&#10;作成日時&#10;&#10;更新日時" style="align=left;strokeColor=none;fillColor=none;spacingLeft=4;fontSize=12;verticalAlign=top;resizable=0;rotatable=0;part=1;" parent="10" vertex="1">
                    <mxGeometry y="50" width="220" height="230" as="geometry"/>
                </mxCell>
                <mxCell id="30" value="" style="fontSize=12;html=1;endArrow=ERzeroToMany;startArrow=ERmandOne;entryX=0.645;entryY=-0.004;entryDx=0;entryDy=0;entryPerimeter=0;exitX=0.595;exitY=1.017;exitDx=0;exitDy=0;exitPerimeter=0;" parent="1" source="6" target="10" edge="1">
                    <mxGeometry width="100" height="100" relative="1" as="geometry">
                        <mxPoint x="740" y="378" as="sourcePoint"/>
                        <mxPoint x="740" y="470" as="targetPoint"/>
                    </mxGeometry>
                </mxCell>
                <mxCell id="31" value="" style="edgeStyle=orthogonalEdgeStyle;fontSize=12;html=1;endArrow=ERzeroToMany;startArrow=ERmandOne;entryX=0.578;entryY=-0.003;entryDx=0;entryDy=0;entryPerimeter=0;exitX=0;exitY=0.75;exitDx=0;exitDy=0;" parent="1" source="6" target="14" edge="1">
                    <mxGeometry width="100" height="100" relative="1" as="geometry">
                        <mxPoint x="580" y="320" as="sourcePoint"/>
                        <mxPoint x="430" y="460" as="targetPoint"/>
                    </mxGeometry>
                </mxCell>
                <mxCell id="5" value="チャットルームid" style="swimlane;childLayout=stackLayout;horizontal=1;startSize=45;horizontalStack=0;rounded=1;fontSize=14;fontStyle=0;strokeWidth=2;resizeParent=0;resizeLast=1;shadow=0;dashed=0;align=center;arcSize=0;" parent="1" vertex="1">
                    <mxGeometry x="630" y="57.5" width="190" height="302.5" as="geometry"/>
                </mxCell>
                <mxCell id="6" value="チャットルーム名&#10;&#10;チャット概要&#10;&#10;ファイル送信フラグ&#10;&#10;ダイレクトチャットフラグ&#10;&#10;論理削除フラグ&#10;&#10;作成者id&#10;&#10;更新者id&#10;&#10;作成日時&#10;&#10;更新日時" style="align=left;strokeColor=none;fillColor=none;spacingLeft=4;fontSize=12;verticalAlign=top;resizable=0;rotatable=0;part=1;" parent="5" vertex="1">
                    <mxGeometry y="45" width="190" height="257.5" as="geometry"/>
                </mxCell>
                <mxCell id="33" value="ユーザーid&#10;チャットルームid" style="swimlane;childLayout=stackLayout;horizontal=1;startSize=50;horizontalStack=0;rounded=1;fontSize=14;fontStyle=0;strokeWidth=2;resizeParent=0;resizeLast=1;shadow=0;dashed=0;align=center;arcSize=2;" parent="1" vertex="1">
                    <mxGeometry x="330" y="65" width="160" height="120" as="geometry"/>
                </mxCell>
                <mxCell id="34" value="参加日時" style="align=left;strokeColor=none;fillColor=none;spacingLeft=4;fontSize=12;verticalAlign=top;resizable=0;rotatable=0;part=1;" parent="33" vertex="1">
                    <mxGeometry y="50" width="160" height="70" as="geometry"/>
                </mxCell>
            </root>
        </mxGraphModel>
    </diagram>
</mxfile>